<svg width="512" height="512" xml:space="preserve" xmlns="http://www.w3.org/2000/svg"><defs><linearGradient id="b" x1="77.817" x2="83.088" y1="80.933" y2="16.761" gradientUnits="userSpaceOnUse"><stop stop-color="#ff8000" offset="0"/><stop stop-color="#999" offset="1"/></linearGradient><linearGradient id="c" x1="77.817" x2="83.088" y1="80.933" y2="16.761" gradientUnits="userSpaceOnUse"><stop stop-color="#ff8000" offset="0"/><stop stop-color="#f90" offset="1"/></linearGradient><radialGradient id="a" cx="423.51" cy="102.45" r="256" gradientTransform="matrix(.87537 2.2902 -.93409 .35704 148.48 -904.03)" gradientUnits="userSpaceOnUse"><stop stop-color="#ff9b18" offset="0"/><stop stop-color="#ff8000" offset="1"/></radialGradient></defs><path fill="url(#a)" d="M0 0h512v512H0z"/><path d="M179.67 130a6.652 6.652 0 0 0-6.667 6.667v240a6.652 6.652 0 0 0 6.667 6.666c0-.002 60.027 0 93.363 0 40.35 0 76.945-24.453 92.387-61.732 15.441-37.279 6.854-80.447-21.678-108.98l-28.284-28.284a6.652 6.652 0 0 0-9.428 0l-37.712 37.712a6.652 6.652 0 0 0 0 9.429l28.285 28.284c9.6 9.6 12.42 23.78 7.225 36.326-5.196 12.544-17.217 20.578-30.794 20.578 0 0-23.395-.008-26.696 0s-6.624-3.254-6.667-6.667c-.043-3.413 0-173.33 0-173.33a6.652 6.652 0 0 0-6.666-6.667z" fill="#fff"/></svg>